<?xml version="1.0" standalone="no"?>
<!DOCTYPE svg PUBLIC "-//W3C//DTD SVG 20010904//EN"
 "http://www.w3.org/TR/2001/REC-SVG-20010904/DTD/svg10.dtd">
<svg version="1.0" xmlns="http://www.w3.org/2000/svg"
 width="1677.000000pt" height="1677.000000pt" viewBox="0 0 1677.000000 1677.000000"
 preserveAspectRatio="xMidYMid meet">
<metadata>
Created by potrace 1.11, written by Peter Selinger 2001-2013
</metadata>
<g transform="translate(0.000000,1677.000000) scale(0.100000,-0.100000)"
fill="#000000" stroke="none">
<path d="M7328 13040 c-56 -46 -615 -509 -742 -614 -39 -32 -91 -75 -116 -96
-25 -21 -112 -93 -195 -161 -82 -68 -152 -126 -155 -129 -9 -9 -75 -64 -114
-95 -21 -16 -44 -35 -50 -40 -6 -6 -119 -100 -251 -209 -132 -109 -258 -213
-280 -232 -212 -175 -317 -262 -355 -294 -102 -85 -310 -257 -350 -290 -24
-19 -170 -140 -324 -269 -155 -128 -299 -248 -321 -266 -22 -18 -99 -82 -171
-141 -72 -60 -150 -125 -174 -144 -57 -46 -191 -159 -208 -174 -11 -10 32 -13
207 -15 l221 -2 97 83 c54 45 100 85 103 88 3 3 32 28 65 55 33 28 62 52 65
55 3 3 30 25 60 50 30 25 57 47 60 51 3 3 37 32 75 64 39 32 72 61 75 64 3 4
61 53 130 111 69 58 136 115 150 126 14 12 90 77 170 144 80 68 168 142 195
166 110 93 214 181 265 224 30 25 70 59 89 76 20 17 218 185 441 373 223 189
430 364 459 389 30 26 73 63 96 82 23 19 63 53 89 75 27 22 58 48 70 58 11 10
43 37 71 60 27 23 65 56 85 73 19 17 215 183 435 369 220 187 411 349 424 361
l24 22 -181 -1 -180 -2 -54 -45z"/>
<path d="M8061 13066 c-14 -11 -42 -34 -62 -50 -19 -17 -55 -47 -80 -67 -24
-20 -156 -130 -294 -243 -137 -114 -268 -222 -290 -241 -22 -18 -139 -115
-260 -215 -121 -100 -229 -189 -240 -198 -24 -20 -253 -210 -310 -257 -22 -18
-139 -115 -261 -216 -121 -101 -240 -200 -264 -219 -24 -19 -71 -58 -104 -86
-34 -28 -182 -151 -331 -274 -422 -349 -475 -394 -471 -397 2 -2 92 -6 200 -9
l197 -6 197 158 c108 87 206 166 217 176 11 10 74 61 140 114 66 53 138 111
160 129 34 28 308 250 355 288 223 179 326 262 330 267 3 3 25 21 50 40 25 19
50 39 56 45 7 5 20 17 31 25 22 18 220 178 248 201 11 9 45 37 75 61 136 108
378 304 405 327 17 14 49 40 70 58 41 32 374 302 410 331 11 9 65 53 120 97
55 44 102 82 105 85 3 3 28 23 55 44 28 22 54 43 59 48 6 4 -102 7 -239 5
-229 -2 -251 -4 -274 -21z"/>
<path d="M9124 13082 l-210 -2 -70 -58 c-120 -97 -199 -162 -274 -222 -24 -19
-57 -47 -74 -62 -17 -14 -67 -54 -111 -89 -44 -35 -82 -66 -85 -70 -3 -3 -79
-66 -170 -139 -91 -74 -167 -137 -170 -140 -3 -3 -61 -50 -130 -105 -69 -55
-127 -102 -130 -105 -3 -3 -52 -44 -110 -90 -57 -47 -114 -93 -125 -102 -11
-9 -162 -132 -335 -273 -173 -141 -324 -264 -335 -274 -11 -9 -67 -55 -125
-102 -58 -47 -231 -188 -385 -314 -154 -125 -297 -242 -319 -259 -21 -17 -52
-43 -70 -58 -17 -14 -182 -149 -366 -299 -490 -398 -482 -392 -513 -420 l-29
-26 820 0 820 -1 98 85 c55 47 113 97 129 112 17 14 95 82 175 151 80 68 147
127 150 130 3 3 52 46 110 95 58 50 118 102 135 116 16 15 104 91 195 169 91
79 194 169 230 200 36 31 83 72 105 91 22 19 53 46 70 60 16 15 120 104 230
199 110 95 216 187 235 204 19 17 100 87 180 156 80 68 147 127 150 130 3 3
37 32 75 65 39 33 72 62 75 65 3 3 34 30 70 60 36 30 70 60 76 65 6 6 24 21
40 35 16 14 83 72 149 130 67 58 147 128 179 155 91 78 99 85 131 113 17 15
59 52 95 82 36 30 74 64 86 75 12 11 34 31 50 44 16 14 63 54 105 90 41 36
102 89 134 116 32 28 63 55 69 60 6 6 47 41 91 79 44 38 81 72 83 76 2 6 -762
8 -1204 2z"/>
<path d="M10690 13072 c-20 -3 -117 -75 -245 -184 -11 -9 -146 -121 -300 -248
-154 -127 -298 -246 -320 -265 -293 -242 -469 -388 -725 -598 -168 -138 -310
-256 -317 -263 -6 -6 -52 -44 -103 -85 l-91 -74 421 -5 422 -5 -264 -220
c-144 -121 -265 -222 -268 -225 -3 -3 -142 -120 -310 -260 -168 -140 -377
-315 -465 -388 -88 -74 -182 -153 -210 -176 -27 -22 -79 -66 -115 -96 -58 -50
-254 -214 -780 -654 -91 -75 -174 -145 -185 -154 -11 -10 -103 -87 -205 -171
-102 -85 -187 -157 -190 -161 -3 -3 -41 -35 -85 -70 -44 -36 -82 -68 -85 -71
-3 -3 -142 -120 -310 -260 -168 -140 -316 -264 -330 -275 -14 -12 -88 -74
-165 -139 -77 -64 -149 -124 -160 -133 -11 -9 -47 -39 -80 -67 -33 -27 -62
-52 -65 -55 -3 -3 -32 -27 -65 -55 -33 -27 -69 -58 -80 -67 -11 -9 -83 -69
-160 -133 -77 -65 -151 -127 -165 -139 -14 -11 -93 -77 -175 -146 -83 -68
-182 -152 -221 -185 -39 -33 -82 -69 -95 -80 -82 -68 -565 -471 -569 -475 -3
-3 -45 -39 -95 -80 -49 -41 -92 -77 -95 -80 -4 -4 -254 -214 -815 -681 -11 -9
-41 -34 -66 -55 -25 -22 -69 -59 -97 -83 -29 -24 -52 -46 -52 -50 0 -3 321 -5
713 -4 391 1 1034 2 1428 2 l717 1 33 31 c44 41 340 325 699 669 102 98 208
199 235 225 53 51 382 365 496 475 250 240 430 413 469 450 40 38 309 296 459
440 98 93 462 443 506 485 23 22 124 119 225 215 200 192 210 201 491 471 107
103 210 201 229 219 19 18 122 116 229 219 107 102 215 206 241 231 69 66 438
419 480 460 45 44 415 398 484 464 55 52 382 366 555 532 59 56 131 125 161
154 46 44 304 291 480 460 39 38 269 257 475 455 28 28 139 134 246 236 107
102 219 210 249 238 30 29 136 130 235 225 99 95 201 193 227 217 l46 45
-1251 -1 c-689 0 -1263 -2 -1277 -3z m560 -217 c0 -2 -90 -93 -201 -202 -110
-109 -230 -227 -265 -263 l-65 -65 -237 1 c-130 1 -241 2 -246 3 -6 1 6 16 26
34 46 42 185 167 212 190 11 10 43 39 71 65 68 62 210 191 242 218 25 21 34
22 244 23 121 0 219 -1 219 -4z m607 -269 c-124 -122 -246 -241 -272 -266
l-46 -45 -245 0 -245 0 53 49 c77 72 210 193 392 356 21 19 57 52 80 73 23 22
49 42 59 46 10 4 115 7 233 7 l216 1 -225 -221z m-847 -655 c0 -3 -120 -123
-266 -266 l-265 -260 -232 -1 c-128 0 -237 2 -243 4 -9 2 39 53 112 117 18 16
325 293 427 386 l29 26 219 0 c120 0 219 -2 219 -6z m-1691 -1335 c-2 -3 -123
-125 -269 -271 l-264 -265 -246 0 -245 1 35 31 c19 17 67 60 105 96 39 36 95
88 125 116 71 65 257 236 291 267 26 24 30 24 250 27 122 1 221 0 218 -2z"/>
<path d="M13173 12806 c-109 -108 -516 -507 -817 -799 -161 -158 -726 -709
-816 -797 -73 -71 -627 -612 -809 -788 -47 -46 -236 -231 -420 -410 -184 -180
-362 -354 -396 -387 -34 -33 -208 -202 -386 -376 -178 -174 -367 -358 -419
-409 -52 -51 -239 -233 -415 -405 -176 -172 -368 -359 -427 -416 -94 -92 -536
-523 -762 -744 -511 -498 -747 -729 -831 -810 -55 -54 -241 -235 -414 -404
-172 -168 -354 -346 -405 -394 -50 -49 -167 -163 -259 -254 l-168 -165 6
-1182 c9 -1681 9 -1646 15 -1646 4 0 19 15 35 33 44 50 187 210 205 228 8 9
47 51 85 94 39 43 75 83 80 89 6 6 48 54 95 106 47 52 106 118 131 145 55 60
110 121 139 155 12 14 40 45 63 70 23 25 143 158 267 295 123 138 227 252 230
255 5 5 143 158 205 229 17 18 39 43 50 55 11 12 56 62 100 111 44 49 96 105
115 126 19 20 46 50 59 66 21 24 458 509 486 539 19 20 160 177 178 198 10 12
51 57 90 100 40 44 79 87 87 96 8 10 51 57 96 106 66 73 223 248 494 548 19
22 56 63 82 90 26 28 55 61 66 74 11 12 53 59 94 105 131 145 461 511 493 546
16 19 37 42 45 51 12 12 126 139 195 216 6 6 44 49 86 95 42 46 122 136 179
199 93 103 230 255 286 317 31 34 157 173 174 193 8 9 50 55 92 101 42 46 86
95 98 109 12 14 38 43 58 65 21 22 95 105 167 185 71 80 148 165 171 190 23
25 53 57 66 71 12 15 39 44 58 65 57 64 203 226 235 263 17 19 60 66 97 105
l67 71 -4 -95 c-7 -146 -14 -299 -21 -485 -3 -93 -7 -186 -9 -205 l-3 -35 41
46 c42 45 54 58 182 204 38 44 74 85 80 91 5 6 35 39 65 75 30 35 71 82 91
104 19 22 51 58 70 79 19 21 39 44 44 50 6 6 42 47 80 91 96 109 124 140 185
209 61 68 72 81 175 201 43 50 81 92 84 95 3 3 49 55 101 115 52 61 100 115
105 120 6 6 58 64 116 130 57 66 106 122 109 125 3 3 55 61 115 130 60 69 122
139 138 157 l30 32 -2 558 c-1 307 -3 873 -4 1257 -2 447 -6 700 -12 701 -6 1
-65 -52 -132 -119z m-189 -953 c-3 -109 -7 -219 -8 -245 -2 -46 -5 -51 -117
-170 -64 -68 -127 -135 -140 -149 -116 -126 -225 -239 -230 -239 -3 0 -7 111
-8 248 l-2 247 253 252 c139 138 254 252 256 252 1 1 -1 -88 -4 -196z m-8
-871 c6 -283 6 -373 0 -380 -19 -18 -390 -403 -439 -456 l-56 -58 -3 58 c-2
33 -1 145 2 251 l5 192 240 244 c132 134 242 242 245 240 2 -2 5 -43 6 -91z
m-762 -279 c-8 -277 -10 -301 -25 -316 -8 -8 -70 -74 -139 -147 -69 -73 -141
-149 -160 -170 -19 -20 -65 -68 -102 -108 -37 -39 -69 -68 -72 -64 -2 4 -5
116 -5 249 l-2 242 253 250 c139 138 254 251 256 251 1 0 0 -84 -4 -187z"/>
<path d="M4909 10457 c-42 -37 -77 -66 -249 -208 -69 -57 -130 -108 -136 -114
-6 -5 -79 -66 -162 -135 -83 -69 -151 -127 -152 -130 0 -3 107 -4 238 -2 l239
3 69 61 c55 49 167 150 248 223 6 6 49 44 96 85 140 124 161 143 214 192 l51
48 -85 0 c-47 1 -141 3 -210 5 l-125 4 -36 -32z"/>
<path d="M13298 10071 c-1 -5 -48 -57 -103 -117 -55 -59 -104 -112 -110 -118
-5 -6 -57 -63 -115 -126 -58 -63 -109 -120 -115 -126 -5 -6 -50 -55 -100 -109
-49 -53 -101 -110 -115 -125 -14 -15 -63 -69 -110 -120 -47 -50 -96 -104 -109
-119 -13 -14 -63 -69 -111 -121 -48 -52 -98 -107 -111 -121 -35 -39 -210 -228
-239 -259 -14 -15 -45 -49 -69 -76 -41 -45 -192 -210 -251 -274 -14 -15 -59
-64 -100 -110 -41 -45 -91 -99 -110 -119 -19 -20 -73 -79 -120 -131 -47 -51
-96 -105 -110 -120 -14 -14 -61 -66 -105 -115 -44 -48 -98 -107 -120 -130 -41
-44 -198 -215 -225 -245 -8 -10 -58 -64 -110 -120 -52 -56 -102 -110 -110
-120 -8 -9 -55 -61 -104 -114 -147 -159 -133 -133 -131 -249 3 -104 16 -737
19 -924 1 -56 4 -105 7 -108 3 -3 54 46 113 108 60 61 203 211 320 331 116
121 227 236 246 256 19 20 127 133 240 250 113 117 228 237 255 265 28 29 145
150 260 270 116 120 226 235 245 255 19 20 89 93 155 162 66 68 210 218 320
332 110 114 234 243 275 286 41 43 158 164 260 270 102 106 213 222 246 257
l62 64 0 659 c0 573 -4 695 -20 651z"/>
<path d="M13258 8448 c-26 -27 -220 -226 -431 -441 -212 -216 -428 -437 -482
-492 -53 -55 -262 -268 -464 -474 -201 -205 -408 -417 -460 -470 -51 -53 -162
-166 -247 -252 l-154 -156 2 -212 3 -212 1145 1146 c630 630 1146 1147 1147
1149 9 10 5 466 -4 465 -5 0 -29 -23 -55 -51z"/>
<path d="M13190 7803 c-127 -133 -594 -615 -690 -713 -69 -71 -518 -534 -595
-615 -32 -33 -177 -183 -324 -334 -146 -151 -291 -300 -321 -332 -64 -66 -228
-236 -600 -618 -146 -150 -287 -297 -314 -326 l-49 -52 -2 -152 c-1 -83 -1
-151 1 -151 2 0 22 20 46 44 51 52 576 591 708 726 51 52 224 230 385 395 161
165 332 341 380 390 48 50 221 227 385 395 164 168 338 346 386 397 49 50 216
221 370 380 155 158 300 307 322 330 l41 42 0 160 c1 89 0 161 -2 161 -2 0
-59 -57 -127 -127z"/>
<path d="M10605 5773 c-165 -167 -302 -305 -303 -308 -6 -7 -8 -407 -2 -410 4
-2 40 29 81 68 41 40 155 149 253 242 98 94 202 193 231 221 l53 52 -2 215
c-1 119 -4 218 -6 220 -3 2 -140 -132 -305 -300z"/>
</g>
</svg>
